<svg width="47" height="47" viewBox="0 0 47 47" fill="none" xmlns="http://www.w3.org/2000/svg">
    <g clip-path="url(#clip0)">
        <path d="M3.37469 13.0681C4.48973 11.8516 5.65817 10.7569 6.9447 9.7406C7.09601 9.62113 7.31384 9.76418 7.26319 9.95018C6.54207 12.6006 5.28215 15.2199 3.33991 17.1671C3.25265 15.8039 3.25137 14.4294 3.37469 13.0681Z" fill="#FF901D"/>
        <path d="M3.34034 17.168C2.21897 15.8148 1.25533 14.4157 0.387125 12.9052C0.287844 12.7325 0.0237654 12.7941 0.013672 12.9931C-0.142958 16.0872 1.03925 19.7076 3.91951 21.1678C3.6325 19.852 3.42568 18.513 3.34034 17.168Z" fill="#FF901D"/>
        <path d="M3.91931 21.1668C4.62502 19.7148 5.41496 18.3638 6.34089 17.0543C6.45072 16.899 6.69709 16.9702 6.70507 17.1603C6.81784 19.8331 6.35924 22.6585 5.07858 25.0048C4.60382 23.7559 4.20339 22.4732 3.91931 21.1668Z" fill="#FF901D"/>
        <path d="M5.07888 25.0058C3.62278 24.0699 2.29266 23.0467 1.01677 21.8974C0.869591 21.7648 0.638729 21.9033 0.688554 22.0949C1.45721 25.0504 3.65535 28.0832 6.78483 28.6189C6.13427 27.4573 5.55152 26.2515 5.07888 25.0058Z" fill="#FF901D"/>
        <path d="M6.7843 28.6182C7.03939 27.0341 7.40422 25.5229 7.91209 24.0121C7.97247 23.8324 8.22765 23.829 8.29096 24.0077C9.17917 26.5153 9.53895 29.3442 9.00309 31.9441C8.18847 30.8898 7.43486 29.7818 6.7843 28.6182Z" fill="#FF901D"/>
        <path d="M9.00373 31.9447C7.34393 31.4745 5.77579 30.8864 4.2228 30.1655C4.04341 30.0822 3.86357 30.2819 3.96698 30.4505C5.56374 33.0544 8.5532 35.3089 11.7019 34.9204C10.7353 33.9944 9.82194 33.0052 9.00373 31.9447Z" fill="#FF901D"/>
        <path d="M11.7012 34.9198C11.4747 33.3238 11.3784 31.7672 11.4229 30.167C11.4282 29.9773 11.6715 29.8996 11.7842 30.0523C13.3745 32.2084 14.561 34.8275 14.8449 37.4829C13.739 36.7057 12.6772 35.8562 11.7012 34.9198Z" fill="#FF901D"/>
        <path d="M43.6051 13.0681C42.49 11.8516 41.3216 10.7569 40.0351 9.7406C39.8838 9.62113 39.6659 9.76418 39.7166 9.95018C40.4377 12.6006 41.6976 15.2199 43.6399 17.1671C43.7271 15.8039 43.7284 14.4294 43.6051 13.0681Z" fill="#FF901D"/>
        <path d="M43.6392 17.168C44.7606 15.8148 45.7243 14.4157 46.5925 12.9052C46.6917 12.7325 46.9558 12.7941 46.9659 12.9931C47.1226 16.0872 45.9403 19.7076 43.0601 21.1678C43.3471 19.852 43.5539 18.513 43.6392 17.168Z" fill="#FF901D"/>
        <path d="M43.0603 21.1668C42.3546 19.7148 41.5646 18.3638 40.6387 17.0543C40.5289 16.899 40.2825 16.9702 40.2745 17.1603C40.1617 19.8331 40.6204 22.6585 41.901 25.0048C42.3758 23.7559 42.7762 22.4732 43.0603 21.1668Z" fill="#FF901D"/>
        <path d="M41.9009 25.0058C43.357 24.0699 44.6871 23.0467 45.963 21.8974C46.1102 21.7648 46.341 21.9033 46.2912 22.0949C45.5226 25.0504 43.3244 28.0832 40.1949 28.6189C40.8455 27.4573 41.4283 26.2515 41.9009 25.0058Z" fill="#FF901D"/>
        <path d="M40.1955 28.6182C39.9404 27.0341 39.5755 25.5229 39.0677 24.0121C39.0073 23.8324 38.7521 23.829 38.6888 24.0077C37.8006 26.5153 37.4408 29.3442 37.9767 31.9441C38.7913 30.8898 39.5449 29.7818 40.1955 28.6182Z" fill="#FF901D"/>
        <path d="M37.9761 31.9447C39.6359 31.4745 41.204 30.8864 42.757 30.1655C42.9364 30.0822 43.1163 30.2819 43.0128 30.4505C41.4161 33.0544 38.4266 35.3089 35.278 34.9204C36.2445 33.9944 37.1579 33.0052 37.9761 31.9447Z" fill="#FF901D"/>
        <path d="M35.2788 34.9198C35.5053 33.3238 35.6015 31.7672 35.557 30.167C35.5518 29.9773 35.3085 29.8996 35.1958 30.0523C33.6055 32.2084 32.419 34.8275 32.1351 37.4829C33.241 36.7057 34.3028 35.8562 35.2788 34.9198Z" fill="#FF901D"/>
        <path d="M18.7281 38.9393C17.4573 38.3127 16.2958 37.6309 15.2755 36.9132C15.2752 36.913 15.2751 36.9129 15.2748 36.9128C15.2746 36.9127 15.2745 36.9125 15.2743 36.9124C14.1357 36.1123 13.1091 35.2755 12.2227 34.4252C12.2226 34.425 12.2224 34.4247 12.2222 34.4246C11.2273 33.4716 10.3457 32.4995 9.60169 31.5352C9.60151 31.5349 9.60123 31.5347 9.60105 31.5344C9.60096 31.5343 9.60096 31.5342 9.60087 31.5341C8.76165 30.4479 8.03649 29.3612 7.44557 28.304C7.4453 28.3034 7.44493 28.303 7.44465 28.3024C6.77446 27.1052 6.21721 25.9253 5.78852 24.7953C5.78834 24.7948 5.78816 24.7944 5.78797 24.7941V24.794C5.29835 23.5056 4.91949 22.2516 4.66174 21.0669C4.66174 21.0667 4.66165 21.0666 4.66165 21.0665C4.36573 19.7099 4.17643 18.4035 4.09908 17.184C4.09908 17.1833 4.0989 17.1828 4.0989 17.1822C4.00898 15.7777 4.02017 14.4389 4.13221 13.2032C4.13358 13.1883 4.13358 13.1734 4.13395 13.1586C4.28186 11.2477 4.63559 9.33227 5.18705 7.46436C5.29789 7.0888 5.08327 6.69452 4.70771 6.58367C4.33233 6.47274 3.93786 6.68727 3.82702 7.06301C3.24152 9.04635 2.86724 11.0814 2.71464 13.1118C2.71363 13.1256 2.71391 13.1392 2.71363 13.1529C2.60151 14.4395 2.59095 15.8249 2.68372 17.2731C2.68372 17.2733 2.68372 17.2735 2.68372 17.2738C2.76557 18.5634 2.96459 19.9398 3.27537 21.3649C3.27565 21.366 3.27574 21.3672 3.27592 21.3683C3.54854 22.6217 3.94768 23.9438 4.46235 25.2977C4.46244 25.2979 4.46244 25.2981 4.46253 25.2983C4.91609 26.4937 5.50316 27.7376 6.20749 28.9955C6.20758 28.9957 6.20767 28.9959 6.20776 28.9961C6.20804 28.9966 6.20822 28.9969 6.2085 28.9973C6.2085 28.9973 6.2085 28.9973 6.20859 28.9974C6.83355 30.115 7.59725 31.2601 8.47867 32.401C8.47904 32.4015 8.4794 32.4018 8.47968 32.4022C9.26613 33.4214 10.1946 34.4458 11.2395 35.4467C11.2397 35.447 11.2399 35.4473 11.2402 35.4476C12.1784 36.3478 13.2614 37.231 14.4592 38.0727C14.4594 38.0728 14.4595 38.0728 14.4597 38.0729C15.5395 38.8328 16.7647 39.5522 18.1009 40.2112C18.2019 40.2609 18.3087 40.2845 18.414 40.2845C18.6754 40.2845 18.927 40.1392 19.0504 39.8889C19.2236 39.5377 19.0792 39.1125 18.7281 38.9393Z" fill="#F7BC14"/>
        <path d="M44.2665 13.153C44.2662 13.1393 44.2665 13.1258 44.2655 13.112C44.1129 11.0814 43.7386 9.04617 43.1531 7.0632C43.0423 6.68773 42.6481 6.47356 42.2723 6.58395C41.8968 6.69479 41.6823 7.08917 41.7931 7.46473C42.3445 9.33218 42.6982 11.2475 42.8462 13.1586C42.8467 13.1735 42.8467 13.1885 42.848 13.2035C42.9601 14.4388 42.9713 15.7776 42.8813 17.1827C42.8813 17.183 42.8813 17.1832 42.8813 17.1834C42.8813 17.1837 42.8812 17.1839 42.8812 17.1841C42.8039 18.4031 42.6146 19.7094 42.3186 21.0667C42.3186 21.0668 42.3185 21.067 42.3185 21.067C42.0609 22.2518 41.682 23.5058 41.1923 24.7941C41.1922 24.7942 41.1922 24.7943 41.1921 24.7945C41.192 24.7949 41.1918 24.7952 41.1916 24.7954C40.763 25.9254 40.2056 27.1057 39.5348 28.3038C39.5348 28.3039 39.5347 28.3041 39.5346 28.3041C38.9437 29.3611 38.2186 30.4478 37.3792 31.5343C37.379 31.5346 37.3788 31.5348 37.3786 31.5351C37.3785 31.5352 37.3785 31.5352 37.3785 31.5353C36.6348 32.4992 35.753 33.4713 34.7579 34.4246C34.7578 34.4248 34.7576 34.4251 34.7574 34.4253C33.8714 35.2753 32.8446 36.1122 31.7057 36.9125C31.7054 36.9127 31.7052 36.9129 31.7048 36.9132C31.7047 36.9132 31.7046 36.9133 31.7045 36.9133C30.6843 37.6312 29.5227 38.3129 28.252 38.9394C27.9007 39.1125 27.7564 39.5377 27.9296 39.8888C28.053 40.1393 28.3045 40.2845 28.5661 40.2845C28.6713 40.2845 28.7782 40.2609 28.879 40.2112C30.2151 39.5523 31.4401 38.833 32.5199 38.0733C32.5203 38.073 32.5206 38.0729 32.521 38.0726C33.719 37.2307 34.802 36.3475 35.7399 35.4476C35.7402 35.4473 35.7404 35.447 35.7407 35.4467C36.786 34.4451 37.7147 33.4205 38.501 32.4015C38.5011 32.4015 38.5011 32.4014 38.5012 32.4013C38.5013 32.4012 38.5014 32.4011 38.5015 32.401C39.3834 31.2594 40.1475 30.1138 40.7724 28.9961C40.7728 28.9954 40.7731 28.9946 40.7735 28.9939C41.4776 27.7361 42.0644 26.4927 42.5174 25.2984C42.5174 25.2983 42.5175 25.2983 42.5175 25.2981C42.5175 25.298 42.5176 25.298 42.5176 25.2978C43.032 23.9447 43.4309 22.6233 43.7035 21.3705C43.7036 21.3702 43.7037 21.37 43.7038 21.3698C44.0151 19.9423 44.2145 18.5643 44.2963 17.2738C44.2964 17.2728 44.2963 17.2719 44.2963 17.2709C44.3891 15.823 44.3785 14.4384 44.2665 13.153Z" fill="#F7BC14"/>
        <path d="M19.4611 27.1613C17.4171 27.1614 15.4248 26.4371 13.8395 25.0881C11.8838 23.4238 10.7621 20.9968 10.7621 18.4295V16.0321C10.7621 15.755 10.8702 15.4944 11.0664 15.2987C11.2619 15.1037 11.5216 14.9963 11.7976 14.9963C11.7985 14.9963 11.7994 14.9963 11.8003 14.9963L18.0773 15.0101C18.4688 15.0109 18.7855 15.3291 18.7847 15.7207C18.7838 16.1117 18.4665 16.4281 18.0758 16.4281C18.0753 16.4281 18.0747 16.4281 18.0741 16.4281L12.1801 16.4152L12.18 18.4294C12.18 20.5802 13.1198 22.6136 14.7584 24.008C16.3844 25.3917 18.5221 25.9903 20.6222 25.6496C20.695 25.6377 20.7683 25.6253 20.8424 25.6124C21.2285 25.5455 21.5955 25.8028 21.6631 26.1885C21.7306 26.5742 21.4727 26.9416 21.087 27.0091C21.0071 27.0231 20.9277 27.0366 20.8491 27.0493C20.3867 27.1244 19.9224 27.1613 19.4611 27.1613Z" fill="#FFB125"/>
        <path d="M27.5186 27.1612C27.0571 27.1612 26.5932 27.1243 26.1305 27.0493C26.0519 27.0366 25.9725 27.0231 25.8926 27.0091C25.5068 26.9416 25.249 26.5741 25.3165 26.1885C25.3841 25.8027 25.7519 25.5453 26.1372 25.6124C26.2112 25.6254 26.2846 25.6378 26.3574 25.6496C28.4579 25.99 30.5952 25.3917 32.2212 24.008C33.8598 22.6137 34.7996 20.5803 34.7996 18.4294V16.4152L28.9055 16.4281C28.905 16.4281 28.9044 16.4281 28.9039 16.4281C28.5131 16.4281 28.1958 16.1117 28.195 15.7207C28.194 15.3291 28.5108 15.0109 28.9024 15.0101L35.1796 14.9963C35.1806 14.9963 35.1815 14.9963 35.1824 14.9963C35.4582 14.9963 35.7178 15.1036 35.9134 15.2987C36.1096 15.4945 36.2177 15.7549 36.2177 16.0321V18.4295C36.2177 20.9968 35.096 23.4238 33.1402 25.0881C31.5549 26.4369 29.5625 27.1612 27.5186 27.1612Z" fill="#FFB125"/>
        <path d="M18.8285 37.4364H28.1519C24.2899 32.5389 24.6929 25.4807 24.6929 25.4807H23.4902H22.2876C22.2876 25.4808 22.6906 32.539 18.8285 37.4364Z" fill="#FED130"/>
        <path d="M24.6924 25.481H23.4898H22.2871C22.2871 25.481 22.3495 26.5768 22.189 28.2044C21.8831 31.3068 22.6527 34.4365 24.4684 36.9706C24.581 37.1278 24.6977 37.2833 24.8186 37.4365H28.1515C24.2894 32.5391 24.6924 25.481 24.6924 25.481Z" fill="#F7BC14"/>
        <path d="M16.4572 12.9646V19.1501C16.4572 22.8095 18.1964 26.2512 21.1427 28.4218C22.5387 29.4502 24.4415 29.4502 25.8375 28.4218C28.7838 26.2513 30.523 22.8095 30.523 19.1501V12.9646H16.4572Z" fill="#FED130"/>
        <path d="M27.1743 12.9646V19.1501C27.1743 22.8095 25.4351 26.2512 22.4888 28.4218C22.2751 28.5793 22.0495 28.7123 21.8157 28.8215C23.1093 29.4259 24.6551 29.2929 25.8374 28.4218C28.7837 26.2513 30.5229 22.8095 30.5229 19.1501V12.9646H27.1743Z" fill="#F7BC14"/>
        <path d="M31.0268 13.9309H15.9532C15.726 13.9309 15.5419 13.7468 15.5419 13.5196V11.8149C15.5419 11.5877 15.726 11.4036 15.9532 11.4036H31.0268C31.254 11.4036 31.4381 11.5877 31.4381 11.8149V13.5196C31.438 13.7468 31.2539 13.9309 31.0268 13.9309Z" fill="#FFB125"/>
        <path d="M31.0266 11.4036H28.0892V13.9308H31.0266C31.2538 13.9308 31.4378 13.7467 31.4378 13.5195V11.8148C31.4378 11.5877 31.2537 11.4036 31.0266 11.4036Z" fill="#FF901D"/>
        <path d="M31.4878 40.4255H15.555C15.324 40.4255 15.1637 40.1955 15.2437 39.9788L16.427 36.7728C16.475 36.6424 16.5993 36.5559 16.7382 36.5559H30.3045C30.4435 36.5559 30.5677 36.6424 30.6158 36.7728L31.799 39.9788C31.879 40.1955 31.7187 40.4255 31.4878 40.4255Z" fill="#FFB125"/>
        <path d="M31.7994 39.9788L30.6162 36.7728C30.5681 36.6424 30.4439 36.5559 30.3049 36.5559H27.069L28.4971 40.4255H31.4881C31.7191 40.4255 31.8794 40.1955 31.7994 39.9788Z" fill="#FF901D"/>
    </g>
    <defs>
        <clipPath id="clip0">
            <rect width="46.9799" height="46.9799" fill="white"/>
        </clipPath>
    </defs>
</svg>
