<svg width="15" height="15" viewBox="0 0 15 15" fill="none" xmlns="http://www.w3.org/2000/svg">
    <g clip-path="url(#clip0)">
        <path d="M7.38353 14.7651C11.4608 14.7651 14.7661 11.4598 14.7661 7.38255C14.7661 3.30528 11.4608 0 7.38353 0C3.30626 0 0.000976562 3.30528 0.000976562 7.38255C0.000976562 11.4598 3.30626 14.7651 7.38353 14.7651Z" fill="#0052B4"/>
        <path d="M7.38299 2.88892L7.62203 3.62455H8.39546L7.76971 4.07918L8.00874 4.81481L7.38299 4.36015L6.7572 4.81481L6.99624 4.07918L6.37048 3.62455H7.14395L7.38299 2.88892Z" fill="#FFDA44"/>
        <path d="M4.20866 4.20527L4.89789 4.55641L5.44481 4.00952L5.32377 4.77344L6.01297 5.1246L5.24902 5.24561L5.12802 6.00959L4.77686 5.32039L4.01294 5.44142L4.55985 4.8945L4.20866 4.20527Z" fill="#FFDA44"/>
        <path d="M2.89185 7.38263L3.62748 7.14359V6.37012L4.08208 6.99591L4.81774 6.75687L4.36305 7.38263L4.81774 8.00839L4.08208 7.76938L3.62748 8.39514V7.62167L2.89185 7.38263Z" fill="#FFDA44"/>
        <path d="M4.20866 10.5601L4.55982 9.87091L4.01294 9.324L4.77689 9.44506L5.12799 8.75586L5.24902 9.51981L6.01294 9.64081L5.32383 9.99197L5.4448 10.7559L4.89789 10.209L4.20866 10.5601Z" fill="#FFDA44"/>
        <path d="M7.38299 11.8765L7.14392 11.1409H6.37048L6.99627 10.6863L6.7572 9.95068L7.38299 10.4053L8.00874 9.95068L7.76971 10.6863L8.39546 11.1409H7.622L7.38299 11.8765Z" fill="#FFDA44"/>
        <path d="M10.561 10.5601L9.87177 10.209L9.32482 10.7559L9.44586 9.99194L8.75671 9.64081L9.52064 9.51981L9.64164 8.75586L9.99277 9.44506L10.7567 9.324L10.2098 9.87097L10.561 10.5601Z" fill="#FFDA44"/>
        <path d="M11.8796 7.38263L11.1439 7.62167V8.39514L10.6893 7.76935L9.95374 8.00839L10.4084 7.38263L9.95374 6.75687L10.6893 6.99591L11.1439 6.37012V7.14362L11.8796 7.38263Z" fill="#FFDA44"/>
        <path d="M10.561 4.205L10.2098 4.89423L10.7567 5.44115L9.99274 5.32009L9.64164 6.00929L9.52063 5.24534L8.75671 5.1243L9.44586 4.77317L9.32482 4.00928L9.8718 4.55616L10.561 4.205Z" fill="#FFDA44"/>
    </g>
    <defs>
        <clipPath id="clip0">
            <rect x="0.000976562" width="14.7651" height="14.7651" fill="white"/>
        </clipPath>
    </defs>
</svg>
