<svg width="15" height="15" viewBox="0 0 15 15" fill="none" xmlns="http://www.w3.org/2000/svg">
    <g clip-path="url(#clip0)">
        <path d="M12.7268 2.29323L11.963 2.80239L10.6901 2.54781L9.9263 2.29323L8.90794 2.54781L8.14417 2.29323L8.65333 1.27487H9.67169L10.6697 0.775879C11.4394 1.15648 12.1357 1.67024 12.7268 2.29323Z" fill="#03AA6F"/>
        <path d="M6.8726 1.27469L6.61802 2.03847L5.85424 2.29305L5.09047 3.566L3.81752 4.32978L2.03541 4.58436V5.34814L2.54458 5.8573V6.87566L1.78086 6.36647L1.01708 5.8573L0.574097 4.52582C1.33658 2.70878 2.79411 1.27238 4.62205 0.536377L5.34508 1.02011L6.8726 1.27469Z" fill="#03AA6F"/>
        <path d="M7.38384 8.40336L7.12925 9.67631L6.11089 10.6947V11.4584L5.09253 12.2222V13.4951L4.32878 13.2406L3.81959 11.9676V9.42172L2.54664 9.16714L2.03748 8.14878V7.385L2.54664 6.87584L3.31042 6.11206L3.81959 7.13042H5.6017L6.36548 8.40336H7.38384Z" fill="#03AA6F"/>
        <path d="M13.8235 3.77722C15.2133 6.25666 15.0549 9.31402 13.4162 11.6364L12.7288 10.949V9.93061L12.2196 8.91225L11.7104 7.89389V6.87553L10.9467 6.36636L9.92829 6.62094L8.14618 5.85717L7.8916 4.07506L8.65538 3.31128H10.1829L10.6921 4.07506L12.2196 4.32964L13.7471 3.82047L13.8235 3.77722Z" fill="#03AA6F"/>
        <path d="M8.91055 2.5478L9.92891 2.29321L10.6927 2.5478L11.9656 2.80238L12.7294 2.29321C13.1558 2.73951 13.5237 3.23824 13.8241 3.77746L13.7478 3.82074L12.2202 4.32991L10.6927 4.07532L10.1835 3.31155H8.65602L7.89224 4.07532L8.14683 5.85743L9.92894 6.62121L10.9473 6.36663L11.7111 6.8758V7.89416L12.2202 8.91252L12.7294 9.93088V10.9492L13.4168 11.6366C11.0657 14.9682 6.45887 15.7628 3.12758 13.4116C0.298326 11.4146 -0.763062 7.71974 0.575316 4.52595L1.0183 5.85743L1.78208 6.3666L2.54586 6.87577L2.03666 7.38496V8.14874L2.54583 9.1671L3.81877 9.42168V11.9676L4.32794 13.2405L5.09171 13.4951V12.2222L6.11008 11.4584V10.6946L7.12844 9.67624L7.38302 8.40329H6.36466L5.60088 7.13035H3.81877L3.3096 6.11199L2.54583 6.87577V5.85741L2.03666 5.34827V4.58449L3.81877 4.32991L5.09171 3.56613L5.85549 2.29318L6.61927 2.0386L6.87385 1.27482L5.34633 1.02024L4.6233 0.53651C6.58109 -0.251954 8.78277 -0.164891 10.6723 0.775837L9.67433 1.27482H8.65596L8.1468 2.29318L8.91055 2.5478Z" fill="#86DAF1"/>
    </g>
    <defs>
        <clipPath id="clip0">
            <rect x="0.000976562" width="14.7651" height="14.7651" fill="white"/>
        </clipPath>
    </defs>
</svg>
