<svg width="34" height="34" viewBox="0 0 34 34" fill="none" xmlns="http://www.w3.org/2000/svg">
    <path d="M34 0H0V34H34V0Z" fill="#4C77A6"/>
    <path d="M9.59501 10.9826C10.3337 12.8031 11.2663 14.5192 12.4974 16.0561C12.6615 16.2576 12.863 16.4441 13.0793 16.5933C13.3927 16.8097 13.6911 16.7351 13.8254 16.3695C13.9597 15.989 14.0866 15.2205 14.094 14.8176C14.1164 13.7731 14.094 13.0941 14.0343 12.0496C13.997 11.3855 13.7583 10.7961 12.7809 10.617C12.475 10.5648 12.4526 10.3111 12.6466 10.0649C13.0495 9.5501 13.6165 9.46803 14.2283 9.43072C15.2206 9.3785 16.213 9.42326 17.2053 9.43072C17.6082 9.43072 18.0185 9.46803 18.414 9.55756C18.9362 9.66948 19.2123 10.0351 19.2944 10.5424C19.3391 10.8036 19.3615 11.0722 19.3541 11.3408C19.3317 12.4748 19.272 13.6164 19.2571 14.7505C19.2496 15.1981 19.2869 15.6532 19.3765 16.086C19.5107 16.6903 19.9211 16.847 20.3464 16.4068C20.8836 15.8472 21.3536 15.228 21.7938 14.5938C22.5996 13.4373 23.204 12.1689 23.7188 10.8632C23.9874 10.1918 24.1888 10.0425 24.92 10.0425C26.2854 10.0425 27.6508 10.0351 29.0161 10.0425C29.2549 10.0425 29.5086 10.0649 29.7398 10.1395C30.1129 10.2589 30.2547 10.5573 30.1726 10.9453C29.9711 11.8406 29.4862 12.6091 28.9639 13.3403C28.1283 14.5192 27.2553 15.6682 26.3973 16.8321C26.2854 16.9813 26.1958 17.138 26.1063 17.3021C25.7855 17.8766 25.8079 18.2049 26.2779 18.6824C27.0166 19.4509 27.8149 20.1672 28.5312 20.9506C29.0534 21.5251 29.5384 22.1444 29.9488 22.7935C30.471 23.6217 30.1502 24.3976 29.1728 24.5394C28.561 24.6289 25.5542 24.5394 25.3975 24.5394C24.5917 24.5394 23.8829 24.2559 23.3084 23.7037C22.6742 23.0919 22.0997 22.4204 21.4879 21.7862C21.3014 21.5923 21.1074 21.4132 20.8985 21.249C20.3986 20.8685 19.9136 20.9506 19.6824 21.54C19.4809 22.0399 19.3093 23.3605 19.3018 23.4724C19.2571 24.0619 18.884 24.4349 18.2274 24.4722C16.3249 24.5767 14.4745 24.3603 12.7585 23.4426C11.3036 22.6592 10.1397 21.5549 9.12497 20.2716C7.52084 18.2273 6.25992 15.9815 5.10346 13.6686C5.04377 13.5492 3.87239 11.0572 3.84254 10.9453C3.73809 10.5499 3.83508 10.1768 4.17083 10.0425C4.37974 9.96046 8.2371 10.0425 8.29679 10.0425C8.91606 10.0873 9.33388 10.3484 9.59501 10.9826Z" fill="white"/>
</svg>
