<svg width="43" height="27" viewBox="10 11 27 27" fill="none" xmlns="http://www.w3.org/2000/svg">
    <path d="M19.4611 27.1613C17.4171 27.1614 15.4248 26.4371 13.8395 25.0881C11.8838 23.4238 10.7621 20.9968 10.7621 18.4295V16.0321C10.7621 15.755 10.8702 15.4944 11.0664 15.2987C11.2619 15.1037 11.5216 14.9963 11.7976 14.9963C11.7985 14.9963 11.7994 14.9963 11.8003 14.9963L18.0773 15.0101C18.4688 15.0109 18.7855 15.3291 18.7847 15.7207C18.7838 16.1117 18.4665 16.4281 18.0758 16.4281C18.0753 16.4281 18.0747 16.4281 18.0741 16.4281L12.1801 16.4152L12.18 18.4294C12.18 20.5802 13.1198 22.6136 14.7584 24.008C16.3844 25.3917 18.5221 25.9903 20.6222 25.6496C20.695 25.6377 20.7683 25.6253 20.8424 25.6124C21.2285 25.5455 21.5955 25.8028 21.6631 26.1885C21.7306 26.5742 21.4727 26.9416 21.087 27.0091C21.0071 27.0231 20.9277 27.0366 20.8491 27.0493C20.3867 27.1244 19.9224 27.1613 19.4611 27.1613Z" fill="#FFB125"/>
    <path d="M27.5186 27.1612C27.0571 27.1612 26.5932 27.1243 26.1305 27.0493C26.0519 27.0366 25.9725 27.0231 25.8926 27.0091C25.5068 26.9416 25.249 26.5741 25.3165 26.1885C25.3841 25.8027 25.7519 25.5453 26.1372 25.6124C26.2112 25.6254 26.2846 25.6378 26.3574 25.6496C28.4579 25.99 30.5952 25.3917 32.2212 24.008C33.8598 22.6137 34.7996 20.5803 34.7996 18.4294V16.4152L28.9055 16.4281C28.905 16.4281 28.9044 16.4281 28.9039 16.4281C28.5131 16.4281 28.1958 16.1117 28.195 15.7207C28.194 15.3291 28.5108 15.0109 28.9024 15.0101L35.1796 14.9963C35.1806 14.9963 35.1815 14.9963 35.1824 14.9963C35.4582 14.9963 35.7178 15.1036 35.9134 15.2987C36.1096 15.4945 36.2177 15.7549 36.2177 16.0321V18.4295C36.2177 20.9968 35.096 23.4238 33.1402 25.0881C31.5549 26.4369 29.5625 27.1612 27.5186 27.1612Z" fill="#FFB125"/>
    <path d="M18.8285 37.4364H28.1519C24.2899 32.5389 24.6929 25.4807 24.6929 25.4807H23.4902H22.2876C22.2876 25.4808 22.6906 32.539 18.8285 37.4364Z" fill="#FED130"/>
    <path d="M24.6924 25.481H23.4898H22.2871C22.2871 25.481 22.3495 26.5768 22.189 28.2044C21.8831 31.3068 22.6527 34.4365 24.4684 36.9706C24.581 37.1278 24.6977 37.2833 24.8186 37.4365H28.1515C24.2894 32.5391 24.6924 25.481 24.6924 25.481Z" fill="#F7BC14"/>
    <path d="M16.4572 12.9646V19.1501C16.4572 22.8095 18.1964 26.2512 21.1427 28.4218C22.5387 29.4502 24.4415 29.4502 25.8375 28.4218C28.7838 26.2513 30.523 22.8095 30.523 19.1501V12.9646H16.4572Z" fill="#FED130"/>
    <path d="M27.1743 12.9646V19.1501C27.1743 22.8095 25.4351 26.2512 22.4888 28.4218C22.2751 28.5793 22.0495 28.7123 21.8157 28.8215C23.1093 29.4259 24.6551 29.2929 25.8374 28.4218C28.7837 26.2513 30.5229 22.8095 30.5229 19.1501V12.9646H27.1743Z" fill="#F7BC14"/>
    <path d="M31.0268 13.9309H15.9532C15.726 13.9309 15.5419 13.7468 15.5419 13.5196V11.8149C15.5419 11.5877 15.726 11.4036 15.9532 11.4036H31.0268C31.254 11.4036 31.4381 11.5877 31.4381 11.8149V13.5196C31.438 13.7468 31.2539 13.9309 31.0268 13.9309Z" fill="#FFB125"/>
    <path d="M31.1252 11.4094H28.1879V13.9367H31.1252C31.3524 13.9367 31.5365 13.7525 31.5365 13.5254V11.8207C31.5365 11.5936 31.3523 11.4094 31.1252 11.4094Z" fill="#FF901D"/>
    <path d="M31.4878 40.4255H15.555C15.324 40.4255 15.1637 40.1955 15.2437 39.9788L16.427 36.7728C16.475 36.6424 16.5993 36.5559 16.7382 36.5559H30.3045C30.4435 36.5559 30.5677 36.6424 30.6158 36.7728L31.799 39.9788C31.879 40.1955 31.7187 40.4255 31.4878 40.4255Z" fill="#FFB125"/>
    <path d="M31.7994 39.9788L30.6162 36.7728C30.5681 36.6424 30.4439 36.5559 30.3049 36.5559H27.069L28.4971 40.4255H31.4881C31.7191 40.4255 31.8794 40.1955 31.7994 39.9788Z" fill="#FF901D"/>
</svg>
