<svg width="41" height="23" viewBox="0 0 27 27" fill="none" xmlns="http://www.w3.org/2000/svg">
    <g clip-path="url(#clip0)">
        <path d="M9.01414 4.1657L6.54712 0H11.0229L13.49 4.1657H9.01414Z" fill="#FB7B76"/>
        <path d="M13.4901 4.1657L15.9571 0H20.4329L17.9659 4.1657H13.4901Z" fill="#FF5364"/>
        <path d="M18.2943 4.40179C18.2349 4.16619 18.0853 3.96338 17.8777 3.83711C17.7323 3.74973 17.566 3.70335 17.3964 3.70288H9.58337C9.42852 3.70399 9.27618 3.74207 9.13903 3.81397C8.91167 3.93714 8.74693 4.15063 8.68543 4.40179L8.01892 7.06784H18.9608L18.2943 4.40179Z" fill="#547580"/>
        <path d="M13.4898 26.8456C19.3692 26.8456 24.1355 22.0793 24.1355 16.1999C24.1355 10.3204 19.3692 5.5542 13.4898 5.5542C7.61035 5.5542 2.84412 10.3204 2.84412 16.1999C2.84412 22.0793 7.61035 26.8456 13.4898 26.8456Z" fill="#F0C419"/>
        <path d="M23.159 11.7518C19.1216 10.2761 14.5928 11.3738 11.6792 14.5344C8.76563 17.695 8.03927 22.298 9.838 26.2022C5.30562 24.5488 2.45164 20.0542 2.88289 15.2489C3.31413 10.4437 6.92279 6.52909 11.6771 5.70909C16.4315 4.88909 21.143 7.36869 23.159 11.7518Z" fill="#F3D55B"/>
        <path d="M16.2623 24.9946C16.2191 24.9945 16.1762 24.9884 16.1348 24.9765C15.4715 24.787 14.8287 24.5321 14.2158 24.2155C14.0756 24.143 13.982 24.004 13.9675 23.8468C13.9531 23.6896 14.0198 23.5358 14.1444 23.4389C14.5673 23.1148 14.9373 22.727 15.2414 22.2895C15.3872 22.0821 15.6727 22.0306 15.8818 22.1739C16.0909 22.3173 16.1457 22.6022 16.0048 22.8129C15.7879 23.1281 15.5405 23.4211 15.2662 23.6877C15.6319 23.844 16.0069 23.9772 16.3892 24.0864C16.6114 24.1496 16.7531 24.367 16.7211 24.5958C16.6891 24.8246 16.4932 24.9947 16.2622 24.9945L16.2623 24.9946Z" fill="#F29C1F"/>
        <path d="M18.7448 23.6422C18.2211 23.6424 17.6986 23.5949 17.1836 23.5001C17.0419 23.4739 16.9206 23.3832 16.8553 23.2548C16.7899 23.1265 16.7881 22.975 16.8503 22.8451C17.0634 22.4019 17.212 21.9305 17.2915 21.4452C17.3323 21.1928 17.57 21.0213 17.8224 21.0622C18.0747 21.103 18.2462 21.3407 18.2054 21.5931C18.1456 21.961 18.0516 22.3226 17.9247 22.6731C18.2953 22.7124 18.6683 22.725 19.0407 22.7109C19.2962 22.7011 19.5112 22.9003 19.521 23.1558C19.5307 23.4113 19.3315 23.6264 19.076 23.6361C18.9657 23.6402 18.8552 23.6422 18.7448 23.6422Z" fill="#F29C1F"/>
        <path d="M19.3497 21.9395C19.2236 21.9395 19.1031 21.8881 19.0158 21.7972C18.9285 21.7062 18.8821 21.5836 18.8873 21.4577C18.908 20.966 18.8675 20.4736 18.7666 19.9918C18.7324 19.83 18.7872 19.6623 18.9102 19.5518C19.0333 19.4413 19.2059 19.4049 19.3631 19.4562C19.5204 19.5075 19.6382 19.6388 19.6724 19.8006C19.7499 20.1693 19.7966 20.5438 19.8121 20.9202C20.1569 20.8414 20.4954 20.7368 20.8246 20.6073C20.979 20.5444 21.1553 20.5694 21.2861 20.6727C21.417 20.7761 21.4821 20.9418 21.4566 21.1066C21.4312 21.2714 21.319 21.4097 21.1631 21.4688C20.6005 21.691 20.0141 21.8474 19.4155 21.9349C19.3937 21.938 19.3717 21.9396 19.3497 21.9395Z" fill="#F29C1F"/>
        <path d="M20.6746 19.8117C20.4719 19.8115 20.2928 19.6797 20.2325 19.4862C20.0867 19.0135 19.8872 18.559 19.6379 18.1318C19.5106 17.9115 19.5849 17.6299 19.8042 17.5011C20.0236 17.3722 20.3058 17.4446 20.4361 17.663C20.6255 17.9864 20.7895 18.3239 20.9267 18.6726C21.2223 18.4876 21.504 18.2812 21.7695 18.0552C21.8955 17.9481 22.0691 17.9164 22.2249 17.972C22.3806 18.0277 22.4948 18.1621 22.5245 18.3248C22.5542 18.4875 22.4949 18.6537 22.3688 18.7607C21.9142 19.1486 21.4172 19.4838 20.8872 19.7599C20.8214 19.7939 20.7485 19.8116 20.6746 19.8117Z" fill="#F29C1F"/>
        <path d="M21.242 17.3725C21.23 17.3725 21.2178 17.372 21.2058 17.3712C21.0686 17.3604 20.9433 17.2892 20.8639 17.1768C20.5831 16.7763 20.2572 16.4095 19.8927 16.0834C19.7051 15.9128 19.6896 15.623 19.858 15.4335C20.0264 15.2439 20.316 15.2251 20.5075 15.3913C20.7821 15.636 21.0374 15.9015 21.2712 16.1855C21.4974 15.9126 21.7043 15.6242 21.8902 15.3224C22.0245 15.1048 22.3097 15.0373 22.5273 15.1716C22.7449 15.3059 22.8124 15.5912 22.6781 15.8087C22.3628 16.322 21.9925 16.7995 21.5738 17.2326C21.4866 17.3221 21.3669 17.3726 21.242 17.3725Z" fill="#F29C1F"/>
        <path d="M21.053 14.8713C20.9532 14.8713 20.8561 14.839 20.7761 14.7793C20.3904 14.4897 19.9715 14.247 19.5284 14.0563C19.3762 13.9915 19.2702 13.8504 19.2503 13.6862C19.2304 13.5221 19.2996 13.3597 19.4318 13.2604C19.564 13.1611 19.7392 13.1398 19.8913 13.2047C20.2266 13.3481 20.5498 13.5181 20.858 13.713C20.9929 13.3781 21.1037 13.034 21.1895 12.6833C21.2277 12.5214 21.3498 12.3924 21.5094 12.3455C21.669 12.2985 21.8415 12.3409 21.9613 12.4563C22.081 12.5718 22.1296 12.7427 22.0885 12.9039C21.9447 13.4947 21.7366 14.0681 21.4679 14.6136C21.4069 14.7367 21.2944 14.8265 21.1608 14.8586C21.1255 14.8669 21.0893 14.8712 21.053 14.8713Z" fill="#F29C1F"/>
        <path d="M20.1067 12.5566C20.0586 12.5567 20.0108 12.5492 19.965 12.5345C19.5006 12.384 19.0198 12.29 18.533 12.2545C18.278 12.2365 18.0859 12.0152 18.1038 11.7602C18.1218 11.5052 18.3431 11.313 18.5981 11.331C18.969 11.3575 19.3372 11.414 19.699 11.5001C19.7188 11.1409 19.7102 10.7807 19.6732 10.4229C19.6534 10.257 19.7246 10.0933 19.8595 9.99458C19.9944 9.8959 20.172 9.87759 20.3241 9.94668C20.4763 10.0158 20.5794 10.1615 20.5939 10.328C20.6573 10.9365 20.6476 11.5504 20.5652 12.1566C20.5338 12.3858 20.338 12.5566 20.1067 12.5566Z" fill="#F29C1F"/>
        <path d="M10.7177 24.9945C10.4867 24.9947 10.2909 24.8246 10.2589 24.5958C10.2269 24.367 10.3685 24.1496 10.5907 24.0864C10.973 23.9771 11.3481 23.844 11.7137 23.6877C11.4394 23.4211 11.192 23.1281 10.9751 22.8129C10.8342 22.6022 10.8891 22.3173 11.0982 22.1739C11.3073 22.0306 11.5928 22.0821 11.7386 22.2895C12.0426 22.727 12.4127 23.1148 12.8355 23.4389C12.9602 23.5358 13.0269 23.6896 13.0124 23.8468C12.998 24.004 12.9044 24.143 12.7642 24.2155C12.1513 24.5321 11.5085 24.787 10.8452 24.9765C10.8038 24.9884 10.7609 24.9945 10.7177 24.9945Z" fill="#F29C1F"/>
        <path d="M8.2352 23.6424C8.12489 23.6424 8.01451 23.6404 7.90407 23.6363C7.64857 23.6265 7.44934 23.4115 7.45908 23.156C7.46882 22.9005 7.68384 22.7013 7.93934 22.711C8.31176 22.7254 8.68473 22.7128 9.05533 22.6733C8.92843 22.3228 8.83447 21.9612 8.77466 21.5932C8.74825 21.43 8.81095 21.265 8.93913 21.1605C9.06732 21.056 9.24151 21.0278 9.39611 21.0866C9.5507 21.1454 9.6622 21.2821 9.68861 21.4454C9.76809 21.9307 9.91665 22.4021 10.1298 22.8453C10.192 22.9752 10.1901 23.1266 10.1248 23.255C10.0595 23.3834 9.93813 23.474 9.7965 23.5002C9.28148 23.595 8.75887 23.6426 8.2352 23.6424Z" fill="#F29C1F"/>
        <path d="M7.63019 21.9394C7.60812 21.9395 7.58608 21.9379 7.56423 21.9348C6.96574 21.8473 6.37936 21.6909 5.81677 21.4688C5.66084 21.4097 5.54873 21.2714 5.52326 21.1066C5.4978 20.9418 5.56292 20.7761 5.69375 20.6727C5.82458 20.5694 6.00089 20.5444 6.1553 20.6073C6.48448 20.7368 6.82293 20.8414 7.1678 20.9202C7.18327 20.5438 7.22999 20.1693 7.30749 19.8006C7.34164 19.6388 7.45953 19.5075 7.61673 19.4562C7.77394 19.4049 7.94659 19.4413 8.06964 19.5518C8.19269 19.6623 8.24745 19.83 8.2133 19.9918C8.11242 20.4736 8.07188 20.966 8.09263 21.4577C8.09776 21.5836 8.05133 21.7062 7.96405 21.7971C7.87678 21.888 7.75621 21.9394 7.63019 21.9394Z" fill="#F29C1F"/>
        <path d="M6.30543 19.8117C6.23143 19.8117 6.15851 19.7939 6.09279 19.7599C5.56278 19.4838 5.06571 19.1486 4.6111 18.7608C4.48506 18.6537 4.42571 18.4875 4.45541 18.3248C4.48511 18.1621 4.59935 18.0277 4.75509 17.972C4.91083 17.9164 5.08441 17.9481 5.21045 18.0552C5.47599 18.2812 5.75766 18.4876 6.05322 18.6726C6.19043 18.3239 6.35446 17.9864 6.54384 17.663C6.67417 17.4446 6.95636 17.3722 7.17571 17.5011C7.39506 17.6299 7.46936 17.9115 7.34208 18.1318C7.09275 18.5591 6.89325 19.0136 6.7475 19.4864C6.68716 19.6799 6.50809 19.8117 6.30543 19.8119V19.8117Z" fill="#F29C1F"/>
        <path d="M5.7378 17.3724C5.61283 17.3724 5.49317 17.3219 5.40603 17.2323C4.98732 16.7992 4.61704 16.3218 4.30175 15.8085C4.16744 15.5909 4.23493 15.3057 4.4525 15.1714C4.67006 15.0371 4.95531 15.1046 5.08962 15.3221C5.27552 15.624 5.48237 15.9124 5.70864 16.1853C5.9424 15.9013 6.19773 15.6357 6.47236 15.391C6.66385 15.2248 6.95341 15.2437 7.1218 15.4332C7.29018 15.6228 7.2747 15.9126 7.08707 16.0831C6.72258 16.4092 6.39672 16.7761 6.11591 17.1766C6.03647 17.2889 5.91116 17.3602 5.77395 17.371C5.76196 17.372 5.74974 17.3724 5.7378 17.3724Z" fill="#F29C1F"/>
        <path d="M5.9271 14.8712C5.89079 14.8712 5.8546 14.8669 5.81926 14.8586C5.68565 14.8265 5.57317 14.7367 5.51215 14.6136C5.24348 14.0681 5.03537 13.4947 4.89155 12.9039C4.85046 12.7427 4.89903 12.5718 5.01878 12.4563C5.13853 12.3409 5.31103 12.2985 5.47063 12.3455C5.63023 12.3924 5.75237 12.5214 5.79056 12.6833C5.87632 13.034 5.98712 13.3781 6.1221 13.713C6.4303 13.5181 6.75358 13.3481 7.08887 13.2047C7.241 13.1398 7.41617 13.1611 7.54839 13.2604C7.68061 13.3598 7.74979 13.5221 7.72988 13.6862C7.70996 13.8504 7.60398 13.9915 7.45184 14.0563C7.00872 14.247 6.58985 14.4897 6.20407 14.7793C6.12409 14.839 6.02693 14.8713 5.9271 14.8712Z" fill="#F29C1F"/>
        <path d="M6.87323 12.5566C6.6419 12.5566 6.4461 12.3858 6.41468 12.1566C6.33227 11.5504 6.32263 10.9365 6.38598 10.328C6.40047 10.1615 6.50358 10.0158 6.65576 9.94668C6.80793 9.87759 6.98553 9.8959 7.12041 9.99458C7.25528 10.0933 7.32649 10.257 7.3067 10.4229C7.2697 10.7807 7.26108 11.1409 7.28092 11.5001C7.64271 11.414 8.01088 11.3575 8.38182 11.331C8.63682 11.313 8.85811 11.5052 8.87608 11.7602C8.89405 12.0152 8.7019 12.2365 8.4469 12.2545C7.96006 12.29 7.47926 12.384 7.01491 12.5345C6.96913 12.5492 6.92132 12.5567 6.87323 12.5566Z" fill="#F29C1F"/>
    </g>
    <defs>
        <clipPath id="clip0">
            <rect x="0.0673828" width="26.8456" height="26.8456" fill="white"/>
        </clipPath>
    </defs>
</svg>
