<svg width="34" height="34" viewBox="0 0 34 34" fill="none" xmlns="http://www.w3.org/2000/svg">
    <path d="M34 0H0V34H34V0Z" fill="url(#paint0_radial)"/>
    <path d="M33.9105 33.1121V0.305903C33.7687 0.201448 33.6269 0.0969936 33.4777 0H0V33.9105H32.6197C33.0823 33.6792 33.5076 33.4106 33.9105 33.1121Z" fill="url(#paint1_radial)"/>
    <path d="M17.0112 4.17822C13.5269 4.17822 13.0867 4.19314 11.7213 4.25283C10.3559 4.31252 9.42328 4.52889 8.61002 4.84972C7.75947 5.178 7.0432 5.6182 6.3344 6.33447C5.61814 7.04327 5.17794 7.75953 4.84966 8.60262C4.52883 9.41588 4.31246 10.3485 4.25277 11.7139C4.19308 13.0793 4.17816 13.5195 4.17816 17.0038C4.17816 20.4881 4.19308 20.9283 4.25277 22.2936C4.31246 23.659 4.52883 24.5917 4.84966 25.4049C5.17794 26.248 5.61814 26.9643 6.32694 27.6805C7.0432 28.3968 7.75947 28.837 8.60256 29.1653C9.41582 29.4861 10.3484 29.7025 11.7213 29.7622C13.0867 29.8218 13.5269 29.8368 17.0112 29.8368C20.4955 29.8368 20.9357 29.8218 22.301 29.7622C23.6664 29.7025 24.5991 29.4861 25.4198 29.1653C26.2629 28.837 26.9791 28.3968 27.6879 27.6805C28.4042 26.9643 28.8369 26.248 29.1727 25.4049C29.486 24.5917 29.7024 23.659 29.7696 22.2936C29.8292 20.9283 29.8442 20.4881 29.8442 17.0038C29.8442 13.5195 29.8292 13.0793 29.7696 11.7139C29.7024 10.3485 29.486 9.41588 29.1727 8.60262C28.8444 7.75953 28.4042 7.04327 27.6879 6.327C26.9717 5.61074 26.2629 5.178 25.4123 4.84972C24.5916 4.52889 23.659 4.31252 22.2936 4.25283C20.9282 4.19314 20.4955 4.17822 17.0112 4.17822ZM15.8622 6.49115C16.2054 6.49115 16.5859 6.49115 17.0112 6.49115C20.4358 6.49115 20.8461 6.50607 22.1966 6.56576C23.4501 6.62545 24.129 6.83436 24.5767 7.00596C25.1736 7.23725 25.5988 7.51331 26.054 7.96844C26.5016 8.4161 26.7777 8.84884 27.0164 9.44572C27.1955 9.90085 27.4044 10.5798 27.4566 11.8258C27.5163 13.1762 27.5312 13.5866 27.5312 17.0112C27.5312 20.4358 27.5163 20.8387 27.4566 22.1967C27.3969 23.4501 27.188 24.1291 27.0164 24.5767C26.7851 25.1736 26.5016 25.5989 26.054 26.054C25.6063 26.5017 25.181 26.7777 24.5767 27.0165C24.1215 27.1956 23.4426 27.4045 22.1966 27.4567C20.8461 27.5164 20.4358 27.5313 17.0112 27.5313C13.5865 27.5313 13.1762 27.5164 11.8257 27.4567C10.5723 27.397 9.89332 27.1881 9.44566 27.0165C8.84878 26.7852 8.41604 26.5091 7.96837 26.054C7.52071 25.6064 7.24465 25.1811 7.0059 24.5767C6.82683 24.1216 6.61792 23.4426 6.5657 22.1967C6.50601 20.8462 6.49109 20.4358 6.49109 17.0112C6.49109 13.5866 6.50601 13.1837 6.5657 11.8258C6.62539 10.5723 6.8343 9.89339 7.0059 9.44572C7.23719 8.84884 7.52071 8.4161 7.96837 7.96844C8.41604 7.52077 8.84878 7.24471 9.44566 7.00596C9.90079 6.82689 10.5797 6.61799 11.8257 6.56576C13.012 6.50607 13.4672 6.49115 15.8622 6.49115ZM23.8604 8.62501C23.0098 8.62501 22.3234 9.31142 22.3234 10.162C22.3234 11.0125 23.0098 11.699 23.8604 11.699C24.711 11.699 25.3974 11.0125 25.3974 10.162C25.3974 9.31142 24.711 8.61755 23.8604 8.62501ZM17.0112 10.4231C13.3702 10.4231 10.4231 13.3702 10.4231 17.0112C10.4231 20.6522 13.3702 23.5993 17.0112 23.5993C20.6522 23.5993 23.5993 20.6522 23.5993 17.0112C23.5993 13.3702 20.6522 10.4231 17.0112 10.4231ZM17.0112 12.736C19.3763 12.736 21.2863 14.6535 21.2863 17.0112C21.2863 19.3764 19.3689 21.2864 17.0112 21.2864C14.646 21.2864 12.736 19.3689 12.736 17.0112C12.736 14.6461 14.646 12.736 17.0112 12.736Z" fill="white"/>
    <defs>
        <radialGradient id="paint0_radial" cx="0" cy="0" r="1" gradientUnits="userSpaceOnUse" gradientTransform="translate(-2.61879 24.9694) scale(33.5477)">
            <stop stop-color="#FFDD55"/>
            <stop offset="0.1" stop-color="#FFDD55"/>
            <stop offset="0.5" stop-color="#FF543E"/>
            <stop offset="1" stop-color="#C837AB"/>
        </radialGradient>
        <radialGradient id="paint1_radial" cx="0" cy="0" r="1" gradientUnits="userSpaceOnUse" gradientTransform="translate(-0.108805 -0.72705) scale(19.0237)">
            <stop stop-color="#3771C8"/>
            <stop offset="0.128" stop-color="#3771C8"/>
            <stop offset="1" stop-color="#6600FF" stop-opacity="0"/>
        </radialGradient>
    </defs>
</svg>
