<svg width="15" height="15" viewBox="0 0 15 15" fill="none" xmlns="http://www.w3.org/2000/svg">
    <g clip-path="url(#clip0)">
        <path d="M7.38353 14.7651C11.4608 14.7651 14.7661 11.4598 14.7661 7.38255C14.7661 3.30528 11.4608 0 7.38353 0C3.30626 0 0.000976562 3.30528 0.000976562 7.38255C0.000976562 11.4598 3.30626 14.7651 7.38353 14.7651Z" fill="#F0F0F0"/>
        <path d="M14.3069 9.95035C14.6037 9.15059 14.7661 8.28556 14.7661 7.38253C14.7661 6.47949 14.6037 5.61446 14.3069 4.8147H0.460165C0.163421 5.61446 0.000976562 6.47949 0.000976562 7.38253C0.000976562 8.28556 0.163421 9.15059 0.460165 9.95035L7.38353 10.5923L14.3069 9.95035Z" fill="#0052B4"/>
        <path d="M7.3821 14.7651C10.5563 14.7651 13.2624 12.7617 14.3055 9.95044H0.45874C1.50184 12.7617 4.20786 14.7651 7.3821 14.7651Z" fill="#D80027"/>
    </g>
    <defs>
        <clipPath id="clip0">
            <rect x="0.000976562" width="14.7651" height="14.7651" fill="white"/>
        </clipPath>
    </defs>
</svg>
